<svg height="496pt" viewBox="0 0 496 496" width="496pt" xmlns="http://www.w3.org/2000/svg"><path d="m232 208.320312c-21.359375-14.320312-46.800781-23.121093-74.238281-24.242187-13.363281-11.757813-21.761719-28.957031-21.761719-48.078125 0-33.199219 25.28125-60.480469 57.601562-63.679688v-.480468c7.519532-36.398438 39.757813-63.839844 78.398438-63.839844 30.320312 0 56.640625 16.878906 70.238281 41.679688 9.839844-6.078126 21.363281-9.679688 33.761719-9.679688 35.359375 0 64 28.640625 64 64 26.480469 0 48 21.519531 48 48s-21.519531 48-48 48h-16zm0 0" fill="#e6e9ed"/><path d="m232 232v56l-55.039062 12.238281c-4.960938 1.042969-9.199219 3.839844-12.160157 7.601563-3.039062 3.679687-4.800781 8.480468-4.800781 13.519531 0 8.800781 5.359375 16.800781 13.601562 20.082031l12.796876 5.117188c8.242187 3.28125 13.601562 11.28125 13.601562 20.082031v10.160156c0 4.640625-1.519531 9.199219-4.320312 12.960938l-13.28125 17.679687c-4.160157 5.597656-6.398438 12.320313-6.398438 19.199219v43.359375c-7.839844 1.28125-15.839844 2-24 2-25.519531 0-49.519531-6.640625-70.320312-18.320312l12.71875-16.878907c6.082031-8.082031 15.523437-12.800781 25.601562-12.800781 6.640625 0 12.640625-2.71875 16.960938-7.039062 4.320312-4.320313 7.039062-10.320313 7.039062-16.960938 0-13.28125-10.71875-24-24-24h-8.960938c-6.878906 0-13.359374-2.238281-18.71875-6.078125-5.28125-3.84375-9.441406-9.28125-11.601562-15.84375-5.199219-15.519531-19.839844-26.078125-36.238281-26.078125h-36.480469c0-29.601562 8.960938-57.121094 24.320312-80h27.28125c11.839844 0 22.078126 8.398438 24.398438 20 1.121094 5.761719 4.320312 10.800781 8.640625 14.320312 4.320313 3.601563 9.839844 5.679688 15.757813 5.679688h11.203124c9.917969 0 18.957032-5.921875 22.878907-15.039062l9.199219-21.601563c5.039062-11.757813 16.640624-19.359375 29.441406-19.359375zm0 0" fill="#69d6f4"/><g fill="#b4dd7f"><path d="m120 376c13.28125 0 24 10.71875 24 24 0 6.640625-2.71875 12.640625-7.039062 16.960938-4.320313 4.320312-10.320313 7.039062-16.960938 7.039062-10.078125 0-19.519531 4.71875-25.601562 12.800781l-12.71875 16.878907c-44-24.640626-73.679688-71.679688-73.679688-125.679688h36.480469c16.398437 0 31.039062 10.558594 36.238281 26.078125 2.160156 6.5625 6.320312 12 11.601562 15.84375 5.359376 3.839844 11.839844 6.078125 18.71875 6.078125zm0 0"/><path d="m232 424v23.679688c-16.558594 11.121093-35.519531 18.878906-56 22.320312v-43.359375c0-6.878906 2.238281-13.601563 6.398438-19.199219l13.28125-17.679687c2.800781-3.761719 4.320312-8.320313 4.320312-12.960938v-10.160156c0-8.800781-5.359375-16.800781-13.601562-20.082031l-12.796876-5.117188c-8.242187-3.28125-13.601562-11.28125-13.601562-20.082031 0-5.039063 1.761719-9.839844 4.800781-13.519531 2.960938-3.761719 7.199219-6.558594 12.160157-7.601563l55.039062-12.238281zm0 0"/><path d="m232 216v16h-50.878906c-12.800782 0-24.402344 7.601562-29.441406 19.359375l-9.199219 21.601563c-3.921875 9.117187-12.960938 15.039062-22.878907 15.039062h-11.203124c-5.917969 0-11.4375-2.078125-15.757813-5.679688-4.320313-3.519531-7.519531-8.558593-8.640625-14.320312-2.320312-11.601562-12.558594-20-24.398438-20h-27.28125c25.757813-38.558594 69.757813-64 119.679688-64 1.921875 0 3.839844 0 5.761719.078125 27.4375 1.121094 52.878906 9.921875 74.238281 24.242187zm0 0"/></g><path d="m424 424v48c0 8.800781-7.199219 16-16 16h-160c-8.800781 0-16-7.199219-16-16v-48zm0 0" fill="#838f9b"/><path d="m424 200v16h-192v-32c0-8.800781 7.199219-16 16-16h160c8.800781 0 16 7.199219 16 16zm0 0" fill="#838f9b"/><path d="m424 216v208h-192v-208zm0 0" fill="#69d6f4"/><path d="m264 248h128v144h-128zm0 0" fill="#fcd770"/><path d="m312 448h32v16h-32zm0 0"/><path d="m256 240v160h144v-160zm128 144h-112v-128h112zm0 0"/><path d="m447.617188 96.585938c-3.730469-36.234376-34.425782-64.585938-71.617188-64.585938-10.703125 0-21.238281 2.40625-30.886719 7.015625-16.265625-24.246094-43.59375-39.015625-73.113281-39.015625-39.871094 0-74.753906 27.152344-84.945312 65.230469-33.535157 6.121093-59.054688 35.496093-59.054688 70.769531 0 14.625 4.535156 28.710938 12.640625 40.574219-78.511719 5.851562-140.640625 71.449219-140.640625 151.425781 0 83.816406 68.183594 152 152 152 25.328125 0 49.929688-6.3125 72-18.222656v10.222656c0 13.230469 10.769531 24 24 24h160c13.230469 0 24-10.769531 24-24v-264h8c30.878906 0 56-25.121094 56-56 0-28.289062-21.105469-51.6875-48.382812-55.414062zm-295.617188 95.414062c25.617188 0 50.390625 7.207031 72 20.734375v11.265625h-42.894531c-16.027344 0-30.457031 9.511719-36.769531 24.238281l-9.230469 21.53125c-2.65625 6.214844-8.753907 10.230469-15.511719 10.230469h-11.203125c-8.015625 0-14.976563-5.703125-16.550781-13.566406-3.054688-15.3125-16.617188-26.433594-32.230469-26.433594h-11.113281c24.960937-29.320312 62.0625-48 103.503906-48zm264 16h-176v-24c0-4.40625 3.59375-8 8-8h160c4.40625 0 8 3.59375 8 8zm-176 16h176v192h-176zm-223.59375 112h28.066406c13.015625 0 24.527344 8.296875 28.648438 20.65625 5.445312 16.351562 20.703125 27.34375 37.941406 27.34375h8.9375c8.824219 0 16 7.175781 16 16s-7.175781 16-16 16c-12.519531 0-24.488281 5.984375-32 16l-8.257812 11.007812c-36.085938-22.75-60.695313-61.929687-63.335938-107.007812zm77.503906 114.785156 6.890625-9.183594c4.503907-6.007812 11.6875-9.601562 19.199219-9.601562 17.648438 0 32-14.351562 32-32s-14.351562-32-32-32h-8.9375c-10.34375 0-19.496094-6.59375-22.765625-16.40625-6.296875-18.898438-23.914063-31.59375-43.824219-31.59375h-28.066406c1.378906-23.414062 8.648438-45.222656 20.433594-64h22.769531c8.015625 0 14.976563 5.703125 16.550781 13.566406 3.054688 15.3125 16.617188 26.433594 32.230469 26.433594h11.203125c13.175781 0 25.03125-7.824219 30.214844-19.929688l9.222656-21.527343c3.800781-8.832031 12.457031-14.542969 22.074219-14.542969h42.894531v41.585938l-48.792969 10.839843c-13.664062 3.039063-23.207031 14.925781-23.207031 28.925781 0 12.191407 7.3125 22.992188 18.625 27.503907l12.808594 5.128906c5.207031 2.085937 8.566406 7.054687 8.566406 12.664063v10.144531c0 2.925781-.96875 5.832031-2.726562 8.175781l-13.273438 17.695312c-5.160156 6.878907-8 15.398438-8 24v36.304688c-5.289062.632812-10.617188 1.03125-16 1.03125-20.800781 0-40.449219-4.832031-58.089844-13.214844zm90.089844 9.351563v-33.472657c0-5.160156 1.703125-10.28125 4.800781-14.398437l13.277344-17.699219c3.816406-5.09375 5.921875-11.40625 5.921875-17.773437v-10.144531c0-12.191407-7.3125-22.992188-18.625-27.503907l-12.808594-5.128906c-5.207031-2.085937-8.566406-7.054687-8.566406-12.664063 0-6.441406 4.390625-11.910156 10.671875-13.3125l45.328125-10.070312v145.289062c-12.433594 7.789063-25.902344 13.46875-40 16.878907zm224 19.863281h-160c-4.40625 0-8-3.59375-8-8v-40h176v40c0 4.40625-3.59375 8-8 8zm32-288h-8v-8c0-13.230469-10.769531-24-24-24h-160c-13.230469 0-24 10.769531-24 24v10.222656c-19.359375-10.445312-40.679688-16.550781-62.726562-17.886718-10.96875-10.535157-17.273438-25.070313-17.273438-40.335938 0-30.878906 25.121094-56 56-56 28.191406 0 52.078125 21.0625 55.566406 48.992188l15.875-1.976563c-4.3125-34.550781-32.90625-60.863281-67.34375-62.824219 9.972656-28.40625 37.117188-48.191406 67.902344-48.191406 26.34375 0 50.566406 14.382812 63.222656 37.535156l4.058594 7.433594 7.191406-4.480469c8.917969-5.550781 19.128906-8.488281 29.527344-8.488281 28.390625 0 51.863281 21.265625 55.464844 48.6875-23.617188 3.59375-42.632813 21.800781-46.695313 45.984375l15.78125 2.648437c3.242188-19.304687 19.832031-33.320312 39.449219-33.320312 22.054688 0 40 17.945312 40 40s-17.945312 40-40 40zm0 0"/></svg>